<?xml version="1.0" encoding="UTF-8"?>
<svg id="_图层_2" data-name="图层_2" xmlns="http://www.w3.org/2000/svg" viewBox="0 0 390.63 418.29">
  <defs>
    <style>
      .cls-1 {
        fill: #727272;
      }

      .cls-2 {
        fill: #d41c5e;
      }

      .cls-2, .cls-3, .cls-4, .cls-5 {
        stroke: #fff;
        stroke-miterlimit: 10;
        stroke-width: 5px;
      }

      .cls-3 {
        fill: #efa441;
      }

      .cls-4 {
        fill: #54a946;
      }

      .cls-5 {
        fill: #348dcc;
      }
    </style>
  </defs>
  <g id="_图层_15" data-name="图层_15">
    <path class="cls-1" d="M195.07,418.29c-50.94,0-77.59-105.22-77.59-209.14S144.14,0,195.07,0s77.59,105.21,77.59,209.14-26.66,209.14-77.59,209.14ZM195.07,24.61c-18.05,0-51.73,63.38-51.73,184.54s33.67,184.54,51.73,184.54,51.73-63.38,51.73-184.54S213.13,24.61,195.07,24.61Z"/>
    <path class="cls-1" d="M52.99,333.38c-22.75,0-39.99-5.96-48.31-19.67-25.47-41.97,56.98-116.54,151.6-168.5,48.97-26.89,98.62-46.55,139.81-55.34,58.85-12.57,81.09,1.06,89.38,14.69,25.46,41.96-56.98,116.53-151.6,168.5-63.71,34.98-133.99,60.31-180.88,60.31h0ZM337.39,109.54c-9.41,0-21.3,1.28-35.63,4.34-38.71,8.26-85.78,26.96-132.54,52.64C58.91,227.1,18.05,286.54,27.08,301.41c9.02,14.87,83.56,10.93,193.86-49.65,110.3-60.58,151.16-120.01,142.13-134.89-2.61-4.29-11.21-7.33-25.68-7.33ZM162.74,155.87h.06-.06Z"/>
    <path class="cls-1" d="M337.15,333.38c-46.89,0-117.16-25.32-180.87-60.31C61.67,221.1-20.79,146.54,4.68,104.57c25.47-41.96,134.58-11.32,229.19,40.65,48.97,26.89,91.68,57.97,120.28,87.52,40.88,42.22,39.59,67.34,31.31,80.98-8.31,13.71-25.56,19.66-48.3,19.66h0ZM169.21,251.76c110.3,60.57,184.83,64.53,193.85,49.65,4.3-7.08-2.67-25.91-27.94-52.01-26.87-27.76-67.43-57.2-114.19-82.88C110.65,105.95,36.1,102,27.08,116.87c-9.02,14.87,31.83,74.31,142.13,134.89h0Z"/>
    <path class="cls-2" d="M195.08,237.74c-16.57,0-30.05-12.82-30.05-28.59s13.48-28.59,30.05-28.59,30.05,12.82,30.05,28.59-13.48,28.59-30.05,28.59Z"/>
    <path class="cls-3" d="M358.07,184.46c-16.57,0-30.05-12.82-30.05-28.59s13.48-28.59,30.05-28.59,30.05,12.82,30.05,28.59-13.48,28.59-30.05,28.59Z"/>
    <path class="cls-5" d="M154.1,390.56c-16.57,0-30.05-12.82-30.05-28.59s13.48-28.59,30.05-28.59,30.05,12.82,30.05,28.59-13.48,28.59-30.05,28.59Z"/>
    <path class="cls-4" d="M74.32,127.28c-16.57,0-30.05-12.82-30.05-28.59s13.48-28.59,30.05-28.59,30.05,12.82,30.05,28.59-13.48,28.59-30.05,28.59Z"/>
  </g>
</svg>